<?xml version="1.0" encoding="UTF-8" standalone="no"?><!DOCTYPE svg PUBLIC "-//W3C//DTD SVG 1.1//EN" "http://www.w3.org/Graphics/SVG/1.1/DTD/svg11.dtd"><svg width="100%" height="100%" viewBox="0 0 1021 714" version="1.1" xmlns="http://www.w3.org/2000/svg" xmlns:xlink="http://www.w3.org/1999/xlink" xml:space="preserve" xmlns:serif="http://www.serif.com/" style="fill-rule:evenodd;clip-rule:evenodd;stroke-linecap:round;stroke-linejoin:round;stroke-miterlimit:1.5;"><rect id="Artboard1" x="0" y="0" width="1020.28" height="713.425" style="fill:none;"/><g id="Left-Blob" serif:id="Left Blob"><path d="M244.395,81.92c0,0 53.534,-39.986 157.412,-3.363c56.148,19.794 67.607,85.769 44.063,119.404c-3.319,4.741 -35.654,36.326 -83.752,27.245c-48.098,-9.082 -53.48,3.7 -60.543,6.39c-7.064,2.691 -47.089,27.245 -49.78,69.625c-2.691,42.381 -10.091,124.45 -20.181,148.668c-8.394,20.145 -19.509,47.425 -89.806,24.217c-70.298,-23.208 -76.016,-126.805 -58.189,-160.776c17.827,-33.972 29.263,-50.789 70.297,-64.243c41.035,-13.454 39.017,-41.035 41.035,-68.952c0,0 -5.381,-65.589 49.444,-98.215Z" style="fill:#df4528;stroke:#fff;stroke-opacity:0;stroke-width:1px;"/></g><path id="Bottom-Right-Blob" serif:id="Bottom Right Blob" d="M572.041,593.171c0,0 -72.129,-52.44 -27.749,-124.871c44.566,-72.736 162.29,-31.112 166.914,-31.112c4.625,0 83.668,17.238 117.303,67.69c33.635,50.453 -5.045,119.405 -15.136,129.496c-10.09,10.09 -49.612,50.873 -118.564,34.476c-66.744,-15.872 -83.667,-36.578 -122.768,-75.679" style="fill:#df4528;stroke:#000;stroke-opacity:0;stroke-width:1px;"/><path id="Top-Right-Blob" serif:id="Top Right Blob" d="M791.415,388.947c-3.229,-11.57 -22.267,-25.579 -22.267,-25.579c0,0 -38.68,-15.556 -44.146,-44.987c-5.466,-29.431 -6.307,-28.17 1.682,-51.294c7.988,-23.124 19.34,-26.908 10.09,-54.237c-9.249,-27.328 -31.533,-98.803 -21.863,-121.506c9.671,-22.704 15.557,-40.363 43.306,-47.51c27.749,-7.148 59.282,45.407 58.861,64.327c-0.42,18.92 3.364,49.191 2.523,55.498c-0.841,6.307 4.625,22.283 18.079,17.659c13.454,-4.625 26.925,-16.246 54.102,-11.672c27.177,4.575 46.013,38.21 40.631,60.543c-5.381,22.334 -22.339,42.542 -66.398,48.007c-10.348,1.284 33.23,1.709 54.02,12.268c21.094,10.712 45.744,55.699 46.282,83.684c0.539,27.984 -18.028,68.885 -30.675,79.648c-12.647,10.763 -43.053,29.868 -69.423,26.101c-26.37,-3.767 -37.402,-7.804 -50.318,-31.483c-12.461,-22.845 -20.665,-46.192 -24.126,-58.199c-0.127,-0.438 -0.247,-0.86 -0.36,-1.268Z" style="fill:#df4528;"/></svg>